<svg width="26" height="24" viewBox="0 0 26 24" fill="none" xmlns="http://www.w3.org/2000/svg">
<g id="icon/social/people">
<path id="Vector" d="M17.3203 11C19.0516 11 20.4388 9.66 20.4388 8C20.4388 6.34 19.0516 5 17.3203 5C15.589 5 14.1914 6.34 14.1914 8C14.1914 9.66 15.589 11 17.3203 11ZM8.97656 11C10.7079 11 12.095 9.66 12.095 8C12.095 6.34 10.7079 5 8.97656 5C7.24523 5 5.84766 6.34 5.84766 8C5.84766 9.66 7.24523 11 8.97656 11ZM8.97656 13C6.54645 13 1.67578 14.17 1.67578 16.5V19H16.2773V16.5C16.2773 14.17 11.4067 13 8.97656 13ZM17.3203 13C17.0179 13 16.6737 13.02 16.3086 13.05C17.5185 13.89 18.3633 15.02 18.3633 16.5V19H24.6211V16.5C24.6211 14.17 19.7504 13 17.3203 13Z" fill="#2F80ED"/>
</g>
</svg>
